<?xml version="1.0" standalone="no"?>
<!DOCTYPE svg PUBLIC "-//W3C//DTD SVG 20010904//EN"
 "http://www.w3.org/TR/2001/REC-SVG-20010904/DTD/svg10.dtd">
<svg version="1.0" xmlns="http://www.w3.org/2000/svg"
 width="500.000000pt" height="500.000000pt" viewBox="0 0 500.000000 500.000000"
 preserveAspectRatio="xMidYMid meet">

<g transform="translate(0.000000,500.000000) scale(0.100000,-0.100000)"
fill="#000000" stroke="none">
<path d="M2160 2800 c-51 -12 -100 -70 -100 -117 0 -56 27 -90 105 -132 78
-41 92 -68 53 -95 -30 -22 -46 -20 -103 9 -27 13 -50 23 -50 22 -1 -1 -11 -18
-23 -38 -18 -30 -20 -38 -9 -48 30 -24 94 -43 147 -43 106 0 162 43 164 127 1
56 -33 95 -121 136 -62 30 -77 47 -67 74 10 24 52 29 96 11 23 -9 42 -15 44
-13 5 7 34 67 34 72 0 9 -60 32 -100 38 -19 3 -51 1 -70 -3z"/>
<path d="M240 2581 l0 -221 45 0 44 0 3 83 3 82 65 5 c38 3 76 12 91 23 51 34
69 130 35 182 -32 49 -62 60 -178 64 l-108 3 0 -221z m184 123 c40 -39 5 -104
-55 -104 -22 0 -28 6 -33 31 -3 17 -6 44 -6 60 0 27 3 29 39 29 23 0 46 -7 55
-16z"/>
<path d="M590 2580 l0 -220 125 0 125 0 0 45 0 45 -75 0 -75 0 0 45 0 45 75 0
75 0 0 40 0 40 -75 0 -75 0 0 45 0 45 75 0 75 0 0 45 0 45 -125 0 -125 0 0
-220z"/>
<path d="M900 2580 l0 -220 50 0 49 0 3 86 3 87 68 -87 67 -86 61 0 60 0 -63
76 c-35 41 -67 81 -72 88 -6 9 2 23 29 48 32 29 38 42 42 84 4 40 0 55 -19 84
-31 46 -72 59 -185 59 l-93 1 0 -220z m182 123 c39 -35 15 -90 -45 -100 l-37
-6 0 62 0 61 32 0 c17 0 40 -7 50 -17z"/>
<path d="M1290 2580 l0 -220 45 0 44 0 3 83 3 82 69 6 c64 5 72 9 103 42 29
32 33 43 33 91 0 102 -54 136 -212 136 l-88 0 0 -220z m182 123 c44 -40 8
-103 -59 -103 l-33 0 0 60 0 60 37 0 c20 0 45 -7 55 -17z"/>
<path d="M1640 2628 c0 -194 8 -221 72 -254 42 -22 143 -23 183 -2 70 37 85
87 85 294 l0 134 -50 0 -50 0 0 -146 c0 -178 -9 -204 -76 -204 -19 0 -38 8
-50 21 -17 18 -19 40 -22 175 l-3 154 -45 0 -44 0 0 -172z"/>
<path d="M2370 2755 l0 -45 50 0 50 0 0 -175 0 -175 50 0 50 0 0 175 0 175 50
0 50 0 0 45 0 45 -150 0 -150 0 0 -45z"/>
<path d="M2761 2593 c-46 -115 -86 -214 -88 -221 -4 -10 7 -12 47 -10 53 3 54
3 68 46 l14 42 87 0 87 0 14 -42 c15 -43 15 -43 68 -46 l53 -3 -14 33 c-7 18
-47 117 -88 220 l-74 188 -46 0 -45 0 -83 -207z m153 15 c10 -29 21 -59 23
-65 4 -9 -9 -13 -46 -13 -28 0 -51 3 -51 7 0 13 45 123 50 123 3 0 14 -24 24
-52z"/>
<path d="M3130 2580 l0 -220 50 0 49 0 3 92 3 92 79 -92 80 -92 107 0 106 0
18 45 17 46 86 -3 85 -3 16 -42 15 -43 91 0 91 0 15 43 16 42 85 3 86 3 17
-46 c18 -45 18 -45 66 -45 27 0 49 3 49 8 0 4 -39 103 -86 220 l-87 213 -44
-3 -44 -3 -79 -194 c-44 -106 -81 -195 -83 -198 -2 -2 -40 86 -84 194 l-81
198 -45 3 -44 3 -83 -206 c-45 -113 -86 -205 -90 -205 -11 0 -180 190 -180
202 0 5 38 54 86 109 l85 99 -59 0 -59 0 -76 -91 -77 -91 0 91 0 91 -50 0 -50
0 0 -220z m623 22 c26 -66 24 -72 -28 -72 -25 0 -45 4 -45 10 0 23 43 121 50
113 4 -4 14 -27 23 -51z m432 -44 c7 -28 6 -28 -40 -28 -46 0 -47 1 -42 28 3
15 13 45 23 67 l17 40 18 -40 c9 -22 21 -52 24 -67z"/>
<path d="M4390 2580 l0 -220 45 0 45 0 2 108 c1 98 3 131 7 156 0 5 40 -52 89
-127 l87 -137 48 0 47 0 0 220 0 220 -45 0 -45 0 0 -135 c0 -74 -3 -135 -7
-135 -5 1 -46 61 -93 135 l-85 135 -47 0 -48 0 0 -220z"/>
</g>
</svg>
